<mxfile host="app.diagrams.net" modified="2022-04-12T16:58:54.538Z" agent="5.0 (Windows)" etag="nIpvfa7gSwJhsX0s1gli" version="17.4.3" type="github">
  <diagram id="a25Awu7tsZ9atOyCglpS" name="Page-1">
    <mxGraphModel dx="1240" dy="657" grid="1" gridSize="10" guides="1" tooltips="1" connect="1" arrows="1" fold="1" page="1" pageScale="1" pageWidth="827" pageHeight="1169" math="0" shadow="0">
      <root>
        <mxCell id="0" />
        <mxCell id="1" parent="0" />
        <mxCell id="zopsyx_U3Knj8r7YK4rU-1" value="Início" style="rounded=1;whiteSpace=wrap;html=1;" parent="1" vertex="1">
          <mxGeometry x="130" y="80" width="80" height="40" as="geometry" />
        </mxCell>
        <mxCell id="zopsyx_U3Knj8r7YK4rU-2" value="&lt;div&gt;Entrada do&lt;br&gt;&lt;/div&gt;&lt;div&gt;primeiro número&lt;br&gt;&lt;/div&gt;&lt;div&gt;&lt;br&gt;&lt;/div&gt;" style="shape=parallelogram;perimeter=parallelogramPerimeter;whiteSpace=wrap;html=1;fixedSize=1;" parent="1" vertex="1">
          <mxGeometry x="270" y="70" width="120" height="60" as="geometry" />
        </mxCell>
        <mxCell id="zopsyx_U3Knj8r7YK4rU-3" value="&lt;div&gt;Entrada do&lt;/div&gt;&lt;div&gt;segundo &lt;br&gt;&lt;/div&gt;&lt;div&gt;número&lt;br&gt;&lt;/div&gt;" style="shape=parallelogram;perimeter=parallelogramPerimeter;whiteSpace=wrap;html=1;fixedSize=1;" parent="1" vertex="1">
          <mxGeometry x="450" y="70" width="120" height="60" as="geometry" />
        </mxCell>
        <mxCell id="zopsyx_U3Knj8r7YK4rU-5" value="&lt;div&gt;Calcular Média: (primeiro número) + (segundo número) / 2&lt;br&gt;&lt;/div&gt;" style="rounded=0;whiteSpace=wrap;html=1;" parent="1" vertex="1">
          <mxGeometry x="454" y="190" width="146" height="80" as="geometry" />
        </mxCell>
        <mxCell id="zopsyx_U3Knj8r7YK4rU-7" value="Apresentar Resultado" style="shape=document;whiteSpace=wrap;html=1;boundedLbl=1;" parent="1" vertex="1">
          <mxGeometry x="467" y="350" width="120" height="80" as="geometry" />
        </mxCell>
        <mxCell id="zopsyx_U3Knj8r7YK4rU-8" value="Fim" style="rounded=1;whiteSpace=wrap;html=1;" parent="1" vertex="1">
          <mxGeometry x="470" y="490" width="120" height="60" as="geometry" />
        </mxCell>
        <mxCell id="zopsyx_U3Knj8r7YK4rU-10" value="" style="endArrow=classic;html=1;rounded=0;exitX=1;exitY=0.5;exitDx=0;exitDy=0;entryX=0;entryY=0.5;entryDx=0;entryDy=0;" parent="1" source="zopsyx_U3Knj8r7YK4rU-1" target="zopsyx_U3Knj8r7YK4rU-2" edge="1">
          <mxGeometry width="50" height="50" relative="1" as="geometry">
            <mxPoint x="390" y="320" as="sourcePoint" />
            <mxPoint x="440" y="270" as="targetPoint" />
          </mxGeometry>
        </mxCell>
        <mxCell id="zopsyx_U3Knj8r7YK4rU-11" value="" style="endArrow=classic;html=1;rounded=0;exitX=1;exitY=0.5;exitDx=0;exitDy=0;entryX=0;entryY=0.5;entryDx=0;entryDy=0;" parent="1" source="zopsyx_U3Knj8r7YK4rU-2" target="zopsyx_U3Knj8r7YK4rU-3" edge="1">
          <mxGeometry width="50" height="50" relative="1" as="geometry">
            <mxPoint x="390" y="320" as="sourcePoint" />
            <mxPoint x="440" y="270" as="targetPoint" />
          </mxGeometry>
        </mxCell>
        <mxCell id="zopsyx_U3Knj8r7YK4rU-12" value="" style="endArrow=classic;html=1;rounded=0;exitX=0.5;exitY=1;exitDx=0;exitDy=0;" parent="1" source="zopsyx_U3Knj8r7YK4rU-3" edge="1">
          <mxGeometry width="50" height="50" relative="1" as="geometry">
            <mxPoint x="390" y="320" as="sourcePoint" />
            <mxPoint x="512.5925925925926" y="192.22222222222217" as="targetPoint" />
          </mxGeometry>
        </mxCell>
        <mxCell id="zopsyx_U3Knj8r7YK4rU-18" value="" style="endArrow=classic;html=1;rounded=0;exitX=0.5;exitY=1;exitDx=0;exitDy=0;" parent="1" source="zopsyx_U3Knj8r7YK4rU-5" edge="1">
          <mxGeometry width="50" height="50" relative="1" as="geometry">
            <mxPoint x="510" y="510" as="sourcePoint" />
            <mxPoint x="527" y="350" as="targetPoint" />
          </mxGeometry>
        </mxCell>
        <mxCell id="zopsyx_U3Knj8r7YK4rU-19" value="" style="endArrow=classic;html=1;rounded=0;exitX=0.494;exitY=0.863;exitDx=0;exitDy=0;exitPerimeter=0;" parent="1" source="zopsyx_U3Knj8r7YK4rU-7" edge="1">
          <mxGeometry width="50" height="50" relative="1" as="geometry">
            <mxPoint x="500" y="570" as="sourcePoint" />
            <mxPoint x="526" y="490" as="targetPoint" />
          </mxGeometry>
        </mxCell>
      </root>
    </mxGraphModel>
  </diagram>
</mxfile>
